<?xml version="1.0" ?><!DOCTYPE svg  PUBLIC '-//W3C//DTD SVG 1.1//EN'  'http://www.w3.org/Graphics/SVG/1.1/DTD/svg11.dtd'><svg enable-background="new 0 0 24 24" height="24px" id="Layer_1" version="1.1" viewBox="0 0 24 24" width="24px" xml:space="preserve" xmlns="http://www.w3.org/2000/svg" xmlns:xlink="http://www.w3.org/1999/xlink"><path d="M24,12.855V12h-0.855c-0.859,0-4.195-2.035-4.289-2.57V8.57h3.43V7.715h-0.854C20.57,7.715,17.238,6,17.145,6V5.145h1.711  V4.285H18c-0.855,0-3.336-1.715-3.43-1.715H9.432C9.338,2.57,6.855,4.285,6,4.285H5.145v0.859h1.711V6  C6.762,6,3.432,7.715,2.57,7.715H1.715V8.57h3.43V9.43C5.051,9.965,1.715,12,0.855,12H0v0.855h4.285v4.289h-2.57v4.285h20.57v-4.285  h-2.57v-4.289H24z M7.715,15.43H6v-2.574h1.715V15.43z M11.145,15.43H9.432v-2.574h1.713V15.43z M14.57,15.43h-1.715v-2.574h1.715  V15.43z M18,15.43h-1.715v-2.574H18V15.43z"/></svg>